<svg width="24" height="24" viewBox="0 0 24 24" fill="none" xmlns="http://www.w3.org/2000/svg">
<g id="&#240;&#159;&#166;&#134; icon &#34;logo instagram&#34;">
<path id="Vector" d="M16.9998 1.99982C18.3248 2.00378 19.5943 2.53187 20.5312 3.46876C21.4681 4.40566 21.9962 5.67522 22.0002 7.00018V16.9998C21.9962 18.3248 21.4681 19.5943 20.5312 20.5312C19.5943 21.4681 18.3248 21.9962 16.9998 22.0002H7.00018C5.67522 21.9962 4.40566 21.4681 3.46876 20.5312C2.53187 19.5943 2.00378 18.3248 1.99982 16.9998V7.00018C2.00378 5.67522 2.53187 4.40566 3.46876 3.46876C4.40566 2.53187 5.67522 2.00378 7.00018 1.99982H16.9998ZM16.9998 0H7.00018C3.15 0 0 3.15 0 7.00018V16.9998C0 20.85 3.15 24 7.00018 24H16.9998C20.85 24 24 20.85 24 16.9998V7.00018C24 3.15 20.85 0 16.9998 0Z" fill="black"/>
<path id="Vector_2" d="M18.4998 7.00024C18.2031 7.00024 17.9131 6.91227 17.6664 6.74745C17.4197 6.58263 17.2275 6.34836 17.1139 6.07427C17.0004 5.80018 16.9707 5.49858 17.0286 5.20761C17.0865 4.91664 17.2293 4.64936 17.4391 4.43958C17.6489 4.22981 17.9161 4.08694 18.2071 4.02907C18.4981 3.97119 18.7997 4.00089 19.0738 4.11443C19.3479 4.22796 19.5821 4.42022 19.747 4.66689C19.9118 4.91356 19.9998 5.20357 19.9998 5.50024C20.0002 5.69735 19.9617 5.89259 19.8864 6.07477C19.8112 6.25695 19.7007 6.42248 19.5614 6.56185C19.422 6.70122 19.2565 6.8117 19.0743 6.88693C18.8921 6.96216 18.6969 7.00067 18.4998 7.00024Z" fill="black"/>
<path id="Vector_3" d="M12 7.99982C12.7912 7.99982 13.5646 8.23443 14.2224 8.67397C14.8802 9.11352 15.3929 9.73826 15.6957 10.4692C15.9984 11.2001 16.0777 12.0044 15.9233 12.7804C15.769 13.5564 15.388 14.2691 14.8286 14.8286C14.2691 15.388 13.5564 15.769 12.7804 15.9233C12.0044 16.0777 11.2001 15.9984 10.4692 15.6957C9.73826 15.3929 9.11352 14.8802 8.67398 14.2224C8.23443 13.5646 7.99982 12.7912 7.99982 12C8.00096 10.9394 8.42277 9.92263 9.1727 9.1727C9.92264 8.42277 10.9394 8.00096 12 7.99982ZM12 6C10.8133 6 9.65328 6.35189 8.66658 7.01118C7.67989 7.67047 6.91085 8.60754 6.45673 9.7039C6.0026 10.8003 5.88378 12.0067 6.11529 13.1705C6.3468 14.3344 6.91825 15.4035 7.75736 16.2426C8.59648 17.0818 9.66557 17.6532 10.8295 17.8847C11.9933 18.1162 13.1997 17.9974 14.2961 17.5433C15.3925 17.0892 16.3295 16.3201 16.9888 15.3334C17.6481 14.3467 18 13.1867 18 12C18 10.4087 17.3679 8.88258 16.2426 7.75736C15.1174 6.63214 13.5913 6 12 6Z" fill="black"/>
</g>
</svg>
