<?xml version="1.0" standalone="no"?>
<!DOCTYPE svg PUBLIC "-//W3C//DTD SVG 20010904//EN"
 "http://www.w3.org/TR/2001/REC-SVG-20010904/DTD/svg10.dtd">
<svg version="1.0" xmlns="http://www.w3.org/2000/svg"
 width="834.000000pt" height="834.000000pt" viewBox="0 0 834.000000 834.000000"
 preserveAspectRatio="xMidYMid meet">

<g transform="translate(0.000000,834.000000) scale(0.100000,-0.100000)"
fill="#000000" stroke="none">
<path d="M3845 7503 c-87 -8 -294 -45 -409 -72 -881 -212 -1570 -694 -2085
-1459 -56 -83 -187 -337 -251 -486 -136 -317 -226 -667 -260 -1005 -13 -133
-13 -440 0 -572 34 -332 119 -685 242 -993 57 -144 57 -144 -82 -184 -180 -51
-297 -72 -408 -72 -211 0 -363 57 -529 198 -63 52 -63 52 -63 25 0 -55 214
-203 332 -230 35 -8 138 -17 229 -20 195 -6 299 8 472 63 60 20 110 34 112 32
1 -2 33 -57 70 -123 490 -870 1208 -1427 2140 -1659 235 -59 587 -113 652
-101 20 4 33 2 33 -5 0 -24 384 0 653 40 361 55 620 138 957 306 553 277 990
664 1335 1184 56 85 121 190 145 233 23 42 44 77 47 77 3 0 48 -16 100 -36 52
-19 157 -51 232 -71 126 -34 146 -36 281 -36 129 0 155 3 233 26 49 15 112 39
140 53 68 34 177 140 177 172 0 21 -6 18 -64 -35 -79 -71 -152 -116 -248 -151
-67 -24 -86 -27 -218 -27 -131 0 -158 4 -280 34 -115 29 -327 95 -338 106 -2
2 21 66 51 142 398 1000 350 1965 -144 2913 -139 265 -305 487 -557 744 -444
453 -948 740 -1562 891 -256 63 -566 103 -797 105 -119 0 -122 0 -126 -22 l-4
-23 -2 23 c-1 21 -4 22 -83 20 -46 -1 -101 -3 -123 -5z m392 -45 c-3 -7 -5 -2
-5 12 0 14 2 19 5 13 2 -7 2 -19 0 -25z m-74 15 c-7 -2 -19 -2 -25 0 -7 3 -2
5 12 5 14 0 19 -2 13 -5z m142 -49 c567 -49 913 -138 1330 -344 304 -150 547
-323 799 -569 359 -353 571 -668 755 -1131 321 -802 314 -1622 -21 -2483 -27
-70 -53 -127 -57 -127 -39 0 -510 239 -721 366 -137 82 -455 301 -776 535
-199 145 -241 172 -287 181 -79 17 -137 -2 -205 -66 -98 -93 -151 -179 -297
-486 -95 -199 -163 -309 -278 -447 -125 -150 -174 -183 -269 -183 -78 1 -95
19 -110 117 -6 43 -11 152 -11 243 0 138 4 189 27 310 41 215 108 515 185 827
38 153 77 317 86 365 l18 88 286 -1 c271 0 291 1 381 25 52 13 115 33 140 44
60 26 118 91 126 141 l6 39 92 32 c50 17 147 58 215 91 68 32 127 59 132 59 5
0 9 -85 9 -188 l0 -189 -26 -11 c-26 -13 -59 -75 -50 -98 3 -7 -8 -42 -23 -76
-40 -88 -75 -203 -68 -221 3 -8 31 -27 63 -43 69 -34 157 -36 244 -7 l55 18 3
53 c2 36 -5 82 -22 140 -15 48 -26 106 -26 128 0 47 -27 89 -63 98 -22 5 -25
13 -30 73 -4 38 -7 134 -7 215 l0 146 53 30 c68 39 97 67 97 95 0 12 -9 83
-20 157 -11 74 -16 136 -12 138 63 25 287 151 287 161 0 17 55 -13 -494 271
-343 178 -471 240 -488 235 -12 -3 -219 -108 -460 -234 -427 -223 -471 -250
-457 -285 2 -6 55 -37 117 -70 61 -32 126 -67 143 -77 l32 -19 -26 -101 c-19
-76 -22 -103 -13 -112 24 -24 45 8 65 97 11 47 23 86 27 86 5 0 135 -68 289
-150 l280 -150 249 125 c139 69 253 120 256 115 3 -5 9 -72 12 -148 l6 -137
-139 -67 c-76 -37 -187 -83 -246 -104 -100 -34 -111 -36 -154 -25 -125 32
-385 150 -529 240 -99 62 -127 70 -133 39 -10 -50 476 -294 658 -331 l63 -12
-51 -56 c-93 -102 -154 -115 -566 -126 l-258 -6 7 52 c4 28 13 74 20 102 8 28
11 57 8 64 -15 40 -289 64 -416 36 -68 -15 -82 -32 -101 -122 l-13 -64 -78 2
c-113 3 -113 3 -64 75 127 187 209 444 209 659 0 120 -76 231 -197 286 -124
57 -251 68 -364 33 -146 -45 -354 -213 -452 -365 -53 -84 -148 -272 -210 -416
-126 -296 -266 -816 -333 -1239 -13 -85 -24 -168 -25 -185 0 -23 -11 -39 -45
-67 -65 -54 -266 -177 -644 -393 -416 -238 -541 -305 -568 -305 -18 0 -42 25
-42 43 0 3 45 24 99 47 96 41 99 43 89 66 -6 13 -14 24 -18 24 -4 0 -48 -18
-100 -40 -51 -23 -94 -39 -95 -38 -7 8 -82 215 -105 293 l-27 90 61 17 c33 9
81 22 104 28 33 8 42 15 38 26 -3 9 -6 22 -6 29 0 9 -26 6 -105 -15 -58 -16
-107 -25 -109 -22 -8 13 -55 238 -58 277 l-3 40 105 15 105 15 -3 28 c-4 31 1
31 -122 12 -52 -8 -95 -13 -97 -12 -3 3 -21 165 -26 245 l-5 62 304 0 304 0 0
120 0 120 -305 0 -305 0 6 83 c7 103 21 228 26 232 1 1 44 -3 93 -11 120 -18
122 -18 127 11 6 29 6 29 -116 45 -73 10 -90 10 -97 -1 -7 -10 -8 -6 -5 11 3
14 10 54 16 90 22 134 54 263 60 244 9 -24 210 -81 210 -59 0 7 2 20 5 28 5
10 -18 20 -95 41 -55 15 -105 24 -110 21 -6 -3 -10 -2 -10 4 0 12 87 262 110
317 l19 43 92 -40 c95 -40 119 -46 119 -30 0 5 2 16 5 24 4 10 -20 24 -87 52
-51 21 -97 41 -102 45 -4 5 26 79 68 164 l76 157 43 -25 c23 -13 93 -54 156
-90 62 -36 117 -66 122 -66 5 0 15 12 23 28 l14 27 -154 88 c-135 78 -157 87
-171 75 -22 -17 3 26 112 192 202 309 477 597 775 810 303 217 708 418 1030
511 198 56 506 108 655 110 33 0 77 3 99 7 38 7 181 5 281 -4z m1483 -1528
c232 -121 422 -223 422 -228 0 -4 -83 -50 -185 -101 l-186 -92 -42 24 c-130
72 -304 193 -319 221 -33 58 -145 87 -229 59 -109 -37 -85 -104 46 -129 36 -7
87 -10 113 -6 46 6 50 4 187 -83 77 -49 149 -96 160 -104 18 -14 5 -22 -201
-125 l-221 -111 -279 148 c-454 241 -556 297 -556 306 0 14 825 444 848 442
11 -1 210 -101 442 -221z m-430 -162 c33 -9 28 -34 -7 -34 -41 0 -91 11 -91
21 0 14 63 22 98 13z m-1456 -86 c89 -49 126 -164 108 -330 -15 -129 -58 -240
-177 -455 l-57 -102 -70 -6 c-39 -3 -141 -10 -226 -14 -95 -6 -172 -15 -199
-25 -24 -9 -47 -16 -52 -16 -60 0 223 643 364 829 23 30 69 76 102 103 58 48
61 49 113 44 28 -2 71 -15 94 -28z m2072 -200 c8 -38 26 -189 26 -219 0 -20
-9 -32 -36 -48 -19 -12 -39 -21 -43 -21 -4 0 -13 56 -19 124 -6 68 -14 130
-17 138 -4 9 6 20 27 30 45 23 57 22 62 -4z m-2255 -773 c4 -4 -132 -195 -207
-290 -147 -188 -457 -544 -520 -600 l-34 -29 7 44 c19 118 178 726 200 770 33
65 98 98 212 109 78 9 332 5 342 -4z m261 1 c0 -35 -47 -253 -120 -561 -10
-44 -35 -147 -54 -230 -20 -82 -43 -199 -52 -260 -17 -118 -28 -144 -130 -322
-103 -178 -270 -408 -392 -540 -48 -52 -132 -93 -189 -93 -52 0 -94 33 -118
92 -45 113 -42 511 6 851 l11 78 56 40 c129 92 480 509 692 821 l80 117 47 4
c74 5 163 7 163 3z m1943 -76 c22 0 27 -4 27 -25 0 -27 -25 -45 -62 -45 -30 0
-48 17 -48 45 0 29 10 37 35 31 11 -3 32 -6 48 -6z m-46 -127 c12 -3 36 0 52
5 l31 11 20 -67 c12 -37 24 -86 27 -108 l5 -42 -51 -11 c-29 -6 -68 -11 -87
-11 l-36 0 4 58 c3 51 1 57 -17 57 -15 0 -24 -11 -33 -42 -8 -24 -20 -43 -28
-43 -20 0 -18 19 12 102 36 101 42 111 62 102 9 -3 27 -9 39 -11z m-382 -762
c344 -248 1268 -836 1440 -917 39 -18 87 -44 107 -56 l38 -23 -59 -107 c-416
-747 -1052 -1271 -1871 -1541 -211 -70 -531 -127 -799 -143 l-111 -7 -2 -41
-1 -41 -4 42 -4 43 -43 0 c-27 0 -48 -6 -56 -15 -7 -9 -27 -25 -44 -37 -23
-15 -21 -12 8 14 l40 35 -110 6 c-60 4 -155 12 -210 19 l-102 11 8 26 c11 33
33 192 28 197 -3 2 -15 5 -28 6 -23 3 -25 -1 -36 -77 -18 -115 -17 -135 4
-136 9 0 12 -3 5 -5 -23 -10 -381 65 -364 75 5 3 21 51 36 105 21 80 24 101
13 107 -30 20 -43 3 -70 -96 -15 -55 -27 -101 -28 -102 0 -2 8 -3 17 -3 9 0
14 -3 10 -6 -17 -17 -359 104 -553 196 -182 86 -457 254 -544 332 -14 13 -20
19 -14 15 9 -6 34 20 79 80 60 80 65 89 49 100 -10 7 -21 13 -25 13 -8 0 -124
-149 -130 -167 -4 -11 -103 70 -244 200 l-50 46 80 80 c79 81 79 81 59 101
l-20 20 -79 -80 -79 -79 -57 63 c-59 64 -179 206 -179 211 0 1 37 31 83 66 45
34 84 64 86 66 3 2 -4 13 -15 24 l-21 20 -49 -38 c-27 -22 -65 -51 -85 -66
l-36 -27 -80 112 c-92 129 -137 199 -125 196 4 -2 78 37 164 87 l156 90 -16
27 c-9 16 -19 28 -22 28 -3 0 -50 -26 -105 -58 -55 -32 -125 -72 -156 -90
l-55 -31 -42 78 c-23 43 -42 85 -42 93 0 8 73 49 184 102 102 49 207 102 233
118 26 16 122 73 213 125 91 52 257 156 368 230 155 103 207 132 215 124 8 -8
10 -35 7 -79 -3 -37 -5 -148 -4 -247 1 -205 10 -251 76 -377 49 -94 133 -178
204 -202 96 -32 215 -15 349 50 63 30 93 56 192 158 165 169 262 303 410 562
l22 39 1 -130 c1 -363 84 -585 248 -657 86 -39 238 -33 356 12 28 10 28 11 10
26 -18 14 -18 14 4 4 30 -15 71 11 171 106 136 128 182 202 467 751 146 281
211 347 339 340 58 -3 65 -6 190 -96z m-3018 -248 c-3 -10 -5 -4 -5 12 0 17 2
24 5 18 2 -7 2 -21 0 -30z m1737 -805 c7 -5 4 -8 -6 -8 -12 0 -18 7 -17 23 0
15 2 17 6 7 3 -8 11 -18 17 -22z"/>
<path d="M4020 7095 l0 -305 135 0 135 0 0 305 0 305 -135 0 -135 0 0 -305z"/>
<path d="M4570 7373 c0 -2 -7 -49 -15 -105 -16 -106 -14 -117 26 -118 12 0 18
23 30 109 l15 109 -28 4 c-15 3 -28 3 -28 1z"/>
<path d="M3650 7358 c0 -12 13 -104 25 -175 5 -27 11 -33 30 -33 30 0 30 5 13
131 -11 88 -12 89 -40 89 -16 0 -28 -5 -28 -12z"/>
<path d="M3298 7293 c-10 -2 -18 -5 -18 -6 1 -1 13 -47 28 -102 21 -76 32
-101 46 -103 10 -2 22 0 27 5 12 12 -40 213 -55 212 -6 -1 -19 -3 -28 -6z"/>
<path d="M4928 7199 c-15 -57 -25 -106 -22 -111 3 -4 15 -8 27 -8 20 0 25 12
49 102 15 56 26 103 25 104 -1 1 -13 5 -27 9 -24 6 -26 3 -52 -96z"/>
<path d="M2918 7163 c-24 -6 -23 -15 21 -118 31 -73 42 -89 57 -87 11 2 22 7
26 10 8 8 -66 195 -78 198 -5 1 -17 0 -26 -3z"/>
<path d="M5306 7073 c-37 -92 -38 -97 -20 -110 10 -7 21 -13 25 -13 4 0 25 45
47 100 38 95 39 101 22 110 -10 6 -22 10 -27 10 -4 0 -25 -44 -47 -97z"/>
<path d="M2536 6975 c-10 -8 -23 -16 -29 -18 -9 -3 30 -75 140 -259 l34 -58
30 16 c16 8 28 18 26 22 -34 61 -172 299 -176 304 -3 4 -15 0 -25 -7z"/>
<path d="M5655 6852 c-43 -76 -85 -147 -93 -159 -12 -20 -11 -23 16 -37 23
-12 32 -13 40 -3 16 21 174 299 170 301 -2 1 -15 9 -29 18 l-26 16 -78 -136z"/>
<path d="M2192 6748 c-7 -7 -12 -15 -12 -19 0 -6 96 -136 119 -161 4 -4 17 -1
29 8 l22 15 -63 84 c-34 46 -67 84 -72 85 -6 0 -16 -5 -23 -12z"/>
<path d="M6016 6672 c-65 -87 -65 -87 -44 -103 23 -18 13 -28 129 121 l27 35
-23 17 c-23 17 -23 17 -89 -70z"/>
<path d="M1857 6452 c-15 -17 -12 -23 61 -95 l78 -78 19 21 c19 21 18 21 -55
95 -41 41 -77 75 -81 75 -3 0 -13 -8 -22 -18z"/>
<path d="M6330 6395 c-73 -74 -74 -74 -55 -95 l19 -21 78 78 c73 72 76 78 61
95 -9 10 -19 18 -22 18 -4 0 -40 -34 -81 -75z"/>
<path d="M2935 6207 c-14 -30 -32 -48 -63 -64 l-43 -22 44 -19 c34 -15 49 -29
63 -61 11 -22 21 -41 24 -41 3 0 13 18 22 40 13 32 27 45 64 61 l47 21 -34 15
c-38 16 -79 51 -79 68 0 6 -6 18 -12 27 -11 15 -15 11 -33 -25z"/>
<path d="M1600 6164 c-16 -18 -15 -19 85 -98 l70 -56 18 21 c10 12 14 25 10
29 -44 38 -154 120 -161 120 -5 0 -15 -7 -22 -16z"/>
<path d="M6602 6093 c-83 -66 -83 -66 -64 -86 20 -19 20 -19 101 43 45 35 81
65 81 67 0 10 -21 43 -28 42 -4 0 -44 -30 -90 -66z"/>
<path d="M6773 5727 c-78 -46 -146 -86 -149 -90 -8 -8 15 -57 27 -57 7 0 298
166 307 175 6 6 -22 55 -32 55 -6 0 -75 -38 -153 -83z"/>
<path d="M7005 5430 c-89 -38 -104 -51 -86 -79 8 -12 26 -8 110 28 97 42 100
43 89 67 -6 13 -14 24 -17 24 -3 -1 -46 -18 -96 -40z"/>
<path d="M2150 5275 l0 -45 -40 0 c-22 0 -40 -4 -40 -10 0 -5 18 -10 40 -10
l40 0 0 -40 c0 -29 4 -40 15 -40 11 0 15 11 15 40 l0 40 45 0 c25 0 45 5 45
10 0 6 -20 10 -45 10 l-45 0 0 45 c0 33 -4 45 -15 45 -11 0 -15 -12 -15 -45z"/>
<path d="M6297 5230 c-13 -28 -30 -45 -64 -61 l-47 -23 30 -9 c40 -13 74 -45
92 -87 l15 -35 10 30 c13 41 52 81 90 92 l32 10 -35 15 c-40 18 -75 53 -85 86
-9 31 -17 27 -38 -18z"/>
<path d="M7145 5003 c-49 -14 -91 -26 -92 -27 -1 0 1 -13 4 -28 l5 -26 91 24
c51 14 99 27 108 30 22 6 13 54 -10 53 -9 0 -56 -12 -106 -26z"/>
<path d="M7203 4637 c-71 -10 -73 -10 -73 -38 0 -33 1 -33 103 -19 115 17 117
18 117 45 0 22 -4 25 -37 24 -21 -1 -71 -6 -110 -12z"/>
<path d="M6770 4170 l0 -120 305 0 305 0 0 120 0 120 -305 0 -305 0 0 -120z"/>
<path d="M6020 4135 c-14 -8 -20 -14 -15 -14 6 0 21 6 35 14 14 8 21 14 15 14
-5 0 -21 -6 -35 -14z"/>
<path d="M5754 4126 c11 -9 27 -16 35 -15 14 0 14 1 1 6 -8 3 -24 10 -35 15
-20 9 -20 9 -1 -6z"/>
<path d="M5885 4110 l-80 -6 75 -1 c41 -1 84 2 95 7 11 5 13 8 5 7 -8 0 -51
-4 -95 -7z"/>
<path d="M5283 3983 c15 -2 39 -2 55 0 15 2 2 4 -28 4 -30 0 -43 -2 -27 -4z"/>
<path d="M5163 3950 c-46 -27 -41 -34 5 -8 46 27 48 28 36 28 -5 0 -24 -9 -41
-20z"/>
<path d="M7130 3732 l0 -29 99 -12 c105 -14 121 -11 121 19 0 20 0 20 -130 40
-90 14 -90 14 -90 -18z"/>
<path d="M7060 3405 c0 -7 -3 -20 -6 -28 -4 -11 14 -20 73 -36 137 -37 140
-37 145 -7 5 23 1 27 -36 37 -23 5 -71 19 -108 29 -54 15 -68 16 -68 5z"/>
<path d="M6930 3009 c-7 -11 -10 -23 -8 -25 3 -2 47 -22 99 -43 86 -37 95 -39
107 -24 7 10 11 22 9 27 -3 9 -171 85 -189 86 -4 0 -12 -9 -18 -21z"/>
<path d="M5290 6020 c0 -13 7 -20 20 -20 13 0 20 7 20 20 0 13 -7 20 -20 20
-13 0 -20 -7 -20 -20z"/>
<path d="M5175 5962 c-88 -48 -66 -83 28 -43 43 18 63 43 51 62 -9 14 -26 10
-79 -19z"/>
<path d="M4900 5824 c-178 -93 -210 -113 -210 -130 0 -33 38 -22 197 61 93 48
172 90 176 94 12 12 -3 41 -22 41 -9 0 -72 -30 -141 -66z"/>
<path d="M5177 3003 c-4 -3 -7 -24 -7 -45 0 -38 0 -38 -41 -38 -52 0 -49 -24
4 -28 34 -3 36 -6 39 -40 4 -48 22 -48 26 0 3 35 5 37 44 40 60 4 63 28 4 28
l-46 0 0 45 c0 42 -7 54 -23 38z"/>
<path d="M6629 2732 l-15 -27 158 -92 158 -91 16 30 c8 16 14 31 12 33 -8 7
-303 175 -308 175 -3 0 -12 -13 -21 -28z"/>
<path d="M5575 2704 c-22 -53 -60 -90 -112 -110 l-45 -17 47 -18 c62 -23 79
-40 106 -102 l22 -52 14 43 c19 54 63 98 113 113 44 13 44 24 0 34 -44 10 -80
43 -106 98 l-23 50 -16 -39z"/>
<path d="M3140 2448 c-79 -51 -170 -73 -295 -72 -91 1 -121 5 -178 26 -37 14
-70 22 -72 18 -7 -11 4 -17 72 -41 82 -29 228 -36 317 -15 71 17 187 68 206
91 21 26 -6 22 -50 -7z"/>
<path d="M6517 2307 c-15 -23 -13 -25 70 -90 l85 -66 18 21 c19 24 30 12 -121
130 l-37 28 -15 -23z"/>
<path d="M3644 2033 c-12 -23 -32 -44 -51 -53 -18 -8 -33 -17 -33 -20 0 -3 15
-12 33 -20 19 -9 39 -30 51 -53 l18 -39 18 39 c11 26 28 44 49 52 17 8 31 17
31 21 0 4 -14 13 -31 21 -21 8 -38 26 -49 52 l-18 39 -18 -39z"/>
<path d="M6277 2032 c-15 -17 -12 -23 61 -95 l78 -78 19 21 c19 21 18 21 -55
95 -41 41 -77 75 -81 75 -3 0 -13 -8 -22 -18z"/>
<path d="M5963 1763 c-22 -15 -22 -15 40 -97 34 -45 64 -84 67 -87 3 -2 15 3
27 11 21 16 21 16 -38 95 -75 100 -70 96 -96 78z"/>
<path d="M2662 1667 c-115 -189 -162 -281 -150 -289 47 -31 42 -35 134 125 47
83 88 155 91 159 2 4 -10 14 -26 22 -29 15 -30 15 -49 -17z"/>
<path d="M5577 1684 l-28 -15 22 -37 c12 -20 53 -92 91 -159 73 -128 70 -126
117 -95 10 8 -5 40 -70 153 -45 79 -87 149 -93 156 -8 9 -18 8 -39 -3z"/>
<path d="M4020 1240 l0 -310 135 0 135 0 0 310 0 310 -135 0 -135 0 0 -310z"/>
<path d="M2937 1297 c-20 -51 -37 -98 -37 -104 0 -11 38 -29 45 -21 1 1 21 46
42 100 l40 96 -24 11 c-13 6 -25 11 -27 11 -1 0 -19 -42 -39 -93z"/>
<path d="M5283 1377 l-22 -12 41 -97 c40 -97 49 -107 77 -89 13 8 9 25 -23
105 -21 53 -41 98 -45 100 -3 2 -16 -1 -28 -7z"/>
<path d="M4913 1252 c-9 -6 -6 -33 14 -110 27 -101 28 -103 53 -97 14 4 26 8
27 9 1 1 -10 48 -25 104 -27 102 -36 115 -69 94z"/>
<path d="M4564 1176 c-3 -7 1 -56 8 -107 13 -91 14 -94 41 -97 31 -4 32 -3 17
101 -16 111 -18 117 -41 117 -11 0 -22 -6 -25 -14z"/>
</g>
</svg>
